<svg width="20" height="13" viewBox="0 0 20 13" fill="none" xmlns="http://www.w3.org/2000/svg">
<path d="M19.9198 5.24996V5.37996L18.4598 10.78C18.2873 11.4209 17.907 11.9865 17.3786 12.3882C16.8503 12.7899 16.2036 13.0051 15.5398 13H7.88982C7.13882 13.003 6.41398 12.7243 5.85853 12.2188C5.30308 11.7133 4.95741 11.0179 4.88982 10.27L4.23982 2.90996C4.2173 2.66064 4.10207 2.42884 3.91692 2.26035C3.73177 2.09186 3.49016 1.99895 3.23982 1.99996H1.06982C0.804608 1.99996 0.550254 1.89461 0.362717 1.70707C0.175181 1.51953 0.0698242 1.26518 0.0698242 0.999964C0.0698242 0.734747 0.175181 0.480393 0.362717 0.292857C0.550254 0.10532 0.804608 -3.63125e-05 1.06982 -3.63125e-05H3.23982C3.99083 -0.00308354 4.71567 0.275661 5.27112 0.781123C5.82657 1.28659 6.17224 1.982 6.23982 2.72996V2.99996H17.9298C18.2149 2.99773 18.4971 3.05646 18.7577 3.17222C19.0182 3.28798 19.2509 3.4581 19.4403 3.67117C19.6297 3.88424 19.7714 4.13534 19.8558 4.40764C19.9402 4.67993 19.9655 4.96712 19.9298 5.24996H19.9198Z" fill="#8064A2"/>
</svg>
